<svg width="12" height="12" viewBox="0 0 12 12" fill="none" xmlns="http://www.w3.org/2000/svg">
<g clip-path="url(#clip0_1_6416)">
<path d="M9.69246 3.69214H2.30784C1.79804 3.69214 1.38477 4.10541 1.38477 4.61522V9.2306C1.38477 9.7404 1.79804 10.1537 2.30784 10.1537H9.69246C10.2023 10.1537 10.6155 9.7404 10.6155 9.2306V4.61522C10.6155 4.10541 10.2023 3.69214 9.69246 3.69214Z" stroke="#78716C" stroke-width="0.923077" stroke-linecap="round" stroke-linejoin="round"/>
<path d="M7.84624 10.1536V2.76902C7.84624 2.52421 7.74899 2.28942 7.57588 2.11631C7.40276 1.9432 7.16798 1.84595 6.92316 1.84595H5.07701C4.83219 1.84595 4.5974 1.9432 4.42429 2.11631C4.25118 2.28942 4.15393 2.52421 4.15393 2.76902V10.1536" stroke="#78716C" stroke-width="0.923077" stroke-linecap="round" stroke-linejoin="round"/>
</g>
<defs>
<clipPath id="clip0_1_6416">
<rect width="11.0769" height="11.0769" fill="white" transform="translate(0.461548 0.461426)"/>
</clipPath>
</defs>
</svg>
